<svg width="434" height="319" viewBox="0 0 434 319" fill="none" xmlns="http://www.w3.org/2000/svg">
<path d="M120.649 225.801C140.806 230.908 151.221 209.34 153.908 197.918C159.552 207.055 171.49 208.668 176.753 208.332C192.61 208.332 198.142 195.118 198.925 188.511H242.263C245.622 204.973 256.037 207.996 267.123 208.332C275.992 208.601 283.809 201.277 286.608 197.582C296.283 226.339 312.364 229.049 319.195 226.809C339.621 223.047 342.04 205.756 340.696 197.582L330.953 146.182C331.222 128.712 320.315 117.85 314.828 114.602C315.097 99.8206 311.132 96.797 309.117 97.133C310.729 90.414 305.533 88.5103 302.734 88.3983H279.217C275.455 88.3983 274.514 94.2214 274.514 97.133C269.408 97.133 269.475 104.748 270.147 108.555H171.378C171.378 100.492 168.69 97.5809 167.346 97.133C167.077 91.7578 162.531 89.0702 160.291 88.3983H146.853C133.147 86.2482 130.616 93.3255 131.064 97.133C126.226 97.9392 125.689 108.891 126.025 114.266C114.199 120.985 110.123 136.775 109.563 143.83L100.492 197.918C98.8127 205.085 100.492 220.695 120.649 225.801Z" stroke="white" stroke-width="4"/>
<path d="M281.585 183.472C281.585 192.201 274.508 199.277 265.779 199.277C257.05 199.277 249.974 192.201 249.974 183.472C249.974 174.743 257.05 167.667 265.779 167.667C274.508 167.667 281.585 174.743 281.585 183.472Z" stroke="white" stroke-width="4"/>
<path d="M190.878 183.472C190.878 192.201 183.802 199.277 175.073 199.277C166.344 199.277 159.268 192.201 159.268 183.472C159.268 174.743 166.344 167.667 175.073 167.667C183.802 167.667 190.878 174.743 190.878 183.472Z" stroke="white" stroke-width="4"/>
<path d="M299.726 137.087C299.726 139.323 297.914 141.134 295.679 141.134C293.444 141.134 291.632 139.323 291.632 137.087C291.632 134.852 293.444 133.04 295.679 133.04C297.914 133.04 299.726 134.852 299.726 137.087Z" stroke="white" stroke-width="4"/>
<path d="M299.726 159.307C299.726 161.542 297.914 163.354 295.679 163.354C293.444 163.354 291.632 161.542 291.632 159.307C291.632 157.072 293.444 155.26 295.679 155.26C297.914 155.26 299.726 157.072 299.726 159.307Z" stroke="white" stroke-width="4"/>
<path d="M308.861 144.082C310.961 144.847 312.044 147.169 311.279 149.269C310.515 151.37 308.193 152.453 306.092 151.688C303.992 150.924 302.909 148.601 303.673 146.501C304.438 144.401 306.76 143.318 308.861 144.082Z" stroke="white" stroke-width="4"/>
<path d="M284.953 144.442C287.053 145.206 288.136 147.529 287.372 149.629C286.607 151.729 284.285 152.812 282.185 152.048C280.084 151.283 279.001 148.961 279.766 146.861C280.53 144.76 282.853 143.677 284.953 144.442Z" stroke="white" stroke-width="4"/>
<path d="M146.861 132.408H138.783C138.23 132.408 137.783 132.855 137.783 133.408V140.86C137.783 141.239 137.997 141.585 138.336 141.755L142.679 143.926C142.978 144.076 143.332 144.066 143.623 143.9L147.357 141.766C147.669 141.588 147.861 141.257 147.861 140.898V133.408C147.861 132.855 147.413 132.408 146.861 132.408Z" stroke="white" stroke-width="4"/>
<path d="M138.783 167.01H146.861C147.413 167.01 147.861 166.563 147.861 166.01V158.558C147.861 158.179 147.647 157.833 147.308 157.663L142.965 155.491C142.666 155.342 142.312 155.352 142.021 155.518L138.287 157.652C137.975 157.83 137.783 158.161 137.783 158.52V166.01C137.783 166.563 138.23 167.01 138.783 167.01Z" stroke="white" stroke-width="4"/>
<path d="M125.521 145.67V153.748C125.521 154.301 125.968 154.748 126.521 154.748H133.973C134.352 154.748 134.698 154.534 134.868 154.195L137.039 149.852C137.189 149.553 137.179 149.199 137.013 148.908L134.879 145.174C134.701 144.862 134.37 144.67 134.011 144.67H126.521C125.968 144.67 125.521 145.117 125.521 145.67Z" stroke="white" stroke-width="4"/>
<path d="M160.123 153.748V145.67C160.123 145.117 159.676 144.67 159.123 144.67H151.671C151.292 144.67 150.946 144.884 150.776 145.223L148.604 149.566C148.455 149.865 148.465 150.219 148.631 150.51L150.765 154.244C150.943 154.556 151.274 154.748 151.633 154.748H159.123C159.676 154.748 160.123 154.301 160.123 153.748Z" stroke="white" stroke-width="4"/>
<mask id="path-12-inside-1_1_48" fill="white">
<rect x="200.269" y="149.541" width="10.0785" height="6.04708" rx="1"/>
</mask>
<rect x="200.269" y="149.541" width="10.0785" height="6.04708" rx="1" stroke="white" stroke-width="6.04708" mask="url(#path-12-inside-1_1_48)"/>
<path d="M232.856 153.926V151.203C232.856 150.538 233.492 150.059 234.131 150.241L238.898 151.603C239.865 151.879 239.865 153.25 238.898 153.526L234.131 154.888C233.492 155.071 232.856 154.591 232.856 153.926Z" stroke="white" stroke-width="4"/>
<path d="M55.5 6.5C55.1667 5.33333 53.8 3.1 51 3.5C47.6413 3.97981 44.2827 9.98476 40.4822 11.3527C40.1834 11.4602 39.8566 11.3803 39.6084 11.182C35.5596 7.94825 26.5787 2.33906 20 3.5C11.6128 4.98008 5.17293 9.86785 3.56237 12.8795C3.51901 12.9606 3.49178 13.0425 3.47498 13.1329C2.81049 16.7086 1.9199 24.9697 3.49999 30.5C5.08006 36.0302 12.6416 39.415 16.3611 40.4615C16.4551 40.488 16.5389 40.5253 16.6234 40.5741C19.3882 42.171 27.598 42.8356 39.5898 33.328C39.8446 33.126 40.1863 33.0502 40.4934 33.1574C42.9388 34.0115 47.4923 36.6143 49.8055 41.5655C49.9328 41.8381 50.167 42.057 50.4665 42.0845C51.7873 42.2062 54.0861 41.5347 55.5 38M55.5 6.5V38M55.5 6.5H377M55.5 38H377M55.5 38L60.4278 277M377 6.5V38M377 6.5C377.5 5.16667 379 2.5 381 2.5C383.5 2.5 386 8 389 10.5C391.4 12.5 396.667 8.66667 399 6.5C402.167 4 411.4 0.500002 423 6.5C425 7.33333 428.9 12.5 428.5 26.5C428.667 30 426.3 37.6 415.5 40C404.826 42.3721 396.528 36.1476 393.601 32.6232C393.532 32.5401 393.455 32.4701 393.362 32.4154C391.455 31.2968 387.232 30.6462 384.5 36.5C381.7 42.5 378.333 40 377 38M377 38V278M60.5 280.5H377M60.5 280.5L60.4278 277M60.5 280.5V311.5M377 280.5V278M377 280.5V311.5M60.4278 277H54.2683C53.8152 277 53.4219 277.305 53.2773 277.734C52.4176 280.288 50.2008 284.409 46.4941 285.39C46.1866 285.471 45.8666 285.372 45.6292 285.16C42.3505 282.238 34.2299 277 25 277C15.5424 277 9.8376 284.764 8.07685 288.819C8.02426 288.941 8 289.068 8 289.2V303.366C8 303.455 8.01066 303.54 8.03534 303.626C9.10924 307.341 13.9265 314.918 25 316.5C28.5855 316.663 37.5896 315.073 45.4669 307.522C45.7857 307.216 46.2671 307.141 46.6444 307.37C48.7893 308.674 52.2203 311.419 53.2915 314.708C53.4391 315.161 53.8431 315.5 54.3198 315.5H59.5V315.5C60.0523 315.5 60.5 315.052 60.5 314.5V311.5M377 278H384.495C384.812 278 385.109 278.15 385.302 278.403C387.777 281.657 392.931 287.267 396 286.5C399.918 285.52 401.917 283.102 405.757 280.654C405.915 280.553 406.099 280.5 406.287 280.5H419.906C419.968 280.5 420.029 280.505 420.09 280.518C423.622 281.227 430.707 284.775 431.5 293.5V303.429C431.5 303.476 431.497 303.522 431.49 303.568C430.963 307.083 427.967 314.262 420.075 315.489C420.026 315.496 419.975 315.5 419.925 315.5H406.492C406.182 315.5 405.891 315.356 405.696 315.115C403.849 312.837 399.776 308.755 396 308C392.219 307.244 388.139 312.088 386.297 315.013C386.108 315.313 385.782 315.5 385.428 315.5H378C377.448 315.5 377 315.052 377 314.5V311.5M60.5 311.5H377" stroke="white" stroke-width="4"/>
</svg>
